<svg width="20" height="22" viewBox="0 0 20 22" fill="none" xmlns="http://www.w3.org/2000/svg">
<path fill-rule="evenodd" clip-rule="evenodd" d="M9.99996 0C8.14344 0 6.36296 0.737498 5.05021 2.05025C3.73745 3.36301 2.99996 5.14348 2.99996 7C2.99996 10.3527 2.28289 12.4346 1.62206 13.6461C1.29027 14.2544 0.967182 14.6535 0.742753 14.8904C0.630278 15.0091 0.541894 15.0878 0.488678 15.1322C0.462056 15.1544 0.444202 15.168 0.436503 15.1737L0.433645 15.1758C0.0751604 15.4221 -0.0834788 15.8725 0.0428637 16.2898C0.170562 16.7115 0.559289 17 0.999956 17H19C19.4406 17 19.8293 16.7115 19.957 16.2898C20.0834 15.8725 19.9248 15.4221 19.5663 15.1758L19.5634 15.1737C19.5557 15.168 19.5379 15.1544 19.5112 15.1322C19.458 15.0878 19.3696 15.0091 19.2572 14.8904C19.0327 14.6535 18.7096 14.2544 18.3779 13.6461C17.717 12.4346 17 10.3527 17 7C17 5.14349 16.2625 3.36301 14.9497 2.05025C13.6369 0.737498 11.8565 0 9.99996 0ZM16.6221 14.6039C16.6982 14.7434 16.7745 14.8753 16.8506 15H3.14928C3.22537 14.8753 3.30175 14.7434 3.37785 14.6039C4.21702 13.0654 4.99996 10.6473 4.99996 7C4.99996 5.67392 5.52674 4.40215 6.46442 3.46447C7.4021 2.52678 8.67387 2 9.99996 2C11.326 2 12.5978 2.52678 13.5355 3.46447C14.4732 4.40215 15 5.67392 15 7C15 10.6473 15.7829 13.0654 16.6221 14.6039Z" fill="black"/>
<path d="M9.13498 19.4982C8.85785 19.0205 8.24593 18.8579 7.7682 19.135C7.29048 19.4121 7.12785 20.024 7.40498 20.5018C7.66869 20.9564 8.04721 21.3337 8.50264 21.5961C8.95806 21.8584 9.47441 21.9965 9.99998 21.9965C10.5255 21.9965 11.0419 21.8584 11.4973 21.5961C11.9527 21.3337 12.3313 20.9564 12.595 20.5018C12.8721 20.024 12.7095 19.4121 12.2317 19.135C11.754 18.8579 11.1421 19.0205 10.865 19.4982C10.7771 19.6498 10.6509 19.7756 10.4991 19.863C10.3473 19.9504 10.1752 19.9965 9.99998 19.9965C9.82478 19.9965 9.65267 19.9504 9.50086 19.863C9.34906 19.7756 9.22288 19.6498 9.13498 19.4982Z" fill="black"/>
</svg>
